<svg width="34" height="24" viewBox="0 0 34 24" fill="none" xmlns="http://www.w3.org/2000/svg">
<path d="M28.7999 3C27.5999 1 25.3999 0 22.9999 0H10.9999C8.59994 0 6.39994 1 5.19994 3C0.599943 10 -0.400057 20.6 2.79994 22.8C5.99994 25 13.1999 15.4 16.9999 15.4C20.7999 15.4 27.7999 25 31.1999 22.8C34.3999 20.6 33.3999 10 28.7999 3ZM12.9999 10H10.9999V12H8.99994V10H6.99994V8H8.99994V6H10.9999V8H12.9999V10ZM23.7999 11C23.7999 12 22.9999 12.8 21.9999 12.8C20.9999 12.8 20.1999 12 20.1999 11C20.1999 10 20.9999 9.2 21.9999 9.2C22.9999 9.2 23.7999 10 23.7999 11ZM27.5999 7C27.5999 8 26.7999 8.8 25.7999 8.8C24.7999 8.8 23.9999 8 23.9999 7C23.9999 6 24.7999 5.2 25.7999 5.2C26.7999 5.2 27.5999 6 27.5999 7Z" fill="#F8F5F0"/>
</svg>
