<svg width="32" height="26" viewBox="0 0 32 26" fill="none" xmlns="http://www.w3.org/2000/svg">
<path d="M31.5094 8.98526L28.28 11.0211C28.0457 11.1618 27.7688 11.2141 27.4993 11.1686C27.2298 11.123 26.9855 10.9826 26.8105 10.7726L25.2063 8.75789V24.0337C25.2057 24.2987 25.1002 24.5528 24.9128 24.7402C24.7254 24.9276 24.4713 25.0331 24.2063 25.0337H7.80628C7.54123 25.0331 7.2872 24.9276 7.09978 24.7402C6.91237 24.5528 6.80683 24.2987 6.80628 24.0337V8.74105L5.18733 10.7726C5.01243 10.982 4.76851 11.1221 4.4995 11.1677C4.23048 11.2132 3.95404 11.1612 3.71996 11.0211L0.488381 8.98526C0.380383 8.9232 0.288054 8.8372 0.218489 8.73388C0.148924 8.63055 0.103977 8.51265 0.0871015 8.38924C0.0702263 8.26583 0.0818728 8.14019 0.121146 8.02198C0.160418 7.90377 0.226272 7.79614 0.313644 7.70737L5.03996 2.46105C5.59549 1.84352 6.27468 1.34971 7.03343 1.01168C7.79218 0.673653 8.61353 0.498962 9.44417 0.498947H11.4126C11.7979 1.39791 12.4385 2.16406 13.2551 2.70245C14.0716 3.24085 15.0282 3.52783 16.0063 3.52783C16.9843 3.52783 17.9409 3.24085 18.7575 2.70245C19.574 2.16406 20.2146 1.39791 20.6 0.498947H22.5663C23.3974 0.499195 24.2192 0.674191 24.9783 1.01258C25.7374 1.35097 26.4168 1.84518 26.9726 2.46316L31.6884 7.70526C31.7756 7.79452 31.8412 7.90258 31.8801 8.02114C31.9191 8.13969 31.9303 8.26559 31.9131 8.38918C31.8958 8.51277 31.8504 8.63076 31.7805 8.73409C31.7105 8.83741 31.6178 8.92334 31.5094 8.98526Z" fill="#F8F5F0"/>
</svg>
