<svg width="30" height="30" viewBox="0 0 30 30" fill="none" xmlns="http://www.w3.org/2000/svg">
<path d="M25.3684 21.7368C26.8218 21.7368 28 22.9151 28 24.3684C28 25.8218 26.8218 27 25.3684 27C23.9151 27 22.7368 25.8218 22.7368 24.3684C22.7368 22.9151 23.9151 21.7368 25.3684 21.7368ZM28 5.28947C16.0096 5.28947 6.28947 15.0096 6.28947 27H3C3 13.1929 14.1929 2 28 2V5.28947ZM28 11.8684C19.643 11.8684 12.8684 18.6431 12.8684 27H9.57895C9.57895 16.8263 17.8263 8.57895 28 8.57895V11.8684ZM28 18.4474C23.2765 18.4474 19.4474 22.2765 19.4474 27H16.1579C16.1579 20.4598 21.4598 15.1579 28 15.1579V18.4474Z" fill="#F8F5F0"/>
</svg>
